# Blender 3.6.2
# www.blender.org
mtllib Graveyard.mtl
o Cube
v -0.236269 0.000000 0.777137
v -0.236269 0.000000 -0.777137
v 0.236269 0.000000 0.777137
v 0.236269 0.000000 -0.777137
v -0.170185 2.000000 0.559773
v -0.236269 1.720301 0.777137
v -0.170185 2.000000 -0.559773
v -0.236269 1.720301 -0.777137
v 0.170185 2.000000 0.559773
v 0.236269 1.720301 0.777137
v 0.170185 2.000000 -0.559773
v 0.236269 1.720301 -0.777137
v 2.376164 -0.049963 0.850649
v 0.817540 -0.049964 0.525725
v 0.817540 -0.049964 -0.525725
v 2.376164 -0.049963 -0.850649
v 3.161992 -0.049967 0.000000
v 1.945377 0.502817 0.000000
v 1.945379 -0.398243 -0.000000
v 3.018011 0.028553 0.499997
v 1.535662 0.028555 0.809012
v 0.673894 0.028553 0.000000
v 1.535662 0.028555 -0.809012
v 3.018011 0.028553 -0.499997
v 2.198586 0.353471 0.499995
v 2.764796 0.353469 0.000000
v 1.282456 0.353471 0.309011
v 1.282456 0.353471 -0.309011
v 2.198586 0.353471 -0.499995
vn -0.0000 1.0000 -0.0000
vn 1.0000 -0.0000 -0.0000
vn -1.0000 -0.0000 -0.0000
vn -0.0000 -1.0000 -0.0000
vn -0.0000 -0.0000 -1.0000
vn -0.9732 0.2299 -0.0000
vn -0.0000 0.6136 -0.7896
vn 0.9732 0.2299 -0.0000
vn -0.0000 0.6136 0.7896
vn -0.0000 -0.0000 1.0000
vn 0.2763 0.6969 0.6618
vn -0.3243 0.7097 0.6254
vn -0.5565 0.7860 -0.2694
vn 0.0247 0.6620 -0.7491
vn 0.7094 0.6984 -0.0946
vn 0.1757 0.9641 -0.1990
vn 0.3402 0.8579 -0.3852
vn 0.2763 0.6969 -0.6618
vn -0.0659 0.9464 -0.3161
vn -0.1216 0.8030 -0.5834
vn -0.3243 0.7097 -0.6254
vn -0.2198 0.9756 -0.0000
vn -0.4710 0.8821 -0.0000
vn -0.5565 0.7860 0.2694
vn -0.0659 0.9464 0.3161
vn -0.1216 0.8030 0.5834
vn 0.0247 0.6620 0.7491
vn 0.1757 0.9641 0.1990
vn 0.3402 0.8579 0.3852
vn 0.7094 0.6984 0.0946
vn 0.2682 -0.9369 -0.2244
vn 0.2530 -0.9335 -0.2541
vn -0.1050 -0.9005 -0.4219
vn -0.0738 -0.8970 -0.4358
vn -0.3177 -0.9466 0.0546
vn -0.3177 -0.9466 -0.0546
vn -0.0738 -0.8970 0.4358
vn -0.1050 -0.9005 0.4219
vn 0.2530 -0.9335 0.2541
vn 0.2682 -0.9369 0.2244
vt 0.434996 0.175744
vt 0.222657 0.857549
vt 0.222657 0.175744
vt 0.696921 0.110521
vt 0.068558 0.841048
vt 0.068558 0.110521
vt 0.059185 0.971236
vt 0.682667 0.246384
vt 0.682667 0.971236
vt 0.375000 0.500000
vt 0.125000 0.750000
vt 0.125000 0.500000
vt 0.669219 0.301092
vt 0.051034 0.569861
vt 0.051034 0.301092
vt 0.193758 0.216908
vt 0.318955 0.986940
vt 0.193758 0.861743
vt 0.174870 0.585151
vt 0.448934 0.500208
vt 0.363991 0.585151
vt 0.579850 0.797275
vt 0.384418 0.196269
vt 0.579850 0.293985
vt 0.117520 0.544120
vt 0.541832 0.444698
vt 0.442410 0.544120
vt 0.669632 0.545877
vt 0.032622 0.821107
vt 0.032622 0.545877
vt 0.759073 0.765026
vt 0.874086 0.765026
vt 0.816579 0.864632
vt 0.745031 0.744868
vt 0.860045 0.744868
vt 0.802538 0.844473
vt 0.750797 0.785185
vt 0.865810 0.785185
vt 0.808303 0.884791
vt 0.743956 0.754947
vt 0.858969 0.754947
vt 0.801463 0.854553
vt 0.751514 0.775106
vt 0.866528 0.775106
vt 0.809021 0.874711
vt 0.924034 0.874711
vt 0.866528 0.974317
vt 0.981541 0.775106
vt 0.916476 0.854553
vt 0.858969 0.954158
vt 0.973983 0.754947
vt 0.923317 0.884791
vt 0.865810 0.984397
vt 0.980824 0.785185
vt 0.917552 0.844473
vt 0.860046 0.944079
vt 0.975059 0.744868
vt 0.931593 0.864632
vt 0.874086 0.964238
vt 0.989099 0.765026
vt 0.522727 0.118096
vt 0.454546 0.314921
vt 0.363637 0.314921
vt 0.545455 0.314921
vt 0.636364 0.314921
vt 0.727273 0.314921
vt 0.818182 0.314921
vt 0.909091 0.314921
vt 0.090910 0.314921
vt 0.000000 0.314921
vt 0.181819 0.314921
vt 0.272728 0.314921
vt 0.434996 0.857549
vt 0.696921 0.841048
vt 0.059185 0.246384
vt 0.375000 0.750000
vt 0.669219 0.569861
vt 0.318955 0.091711
vt 0.089927 0.500208
vt 0.384418 0.894991
vt 0.018099 0.444698
vt 0.669632 0.821107
s 0
usemtl Material.002
f 7/1/1 9/2/1 11/3/1
f 12/4/2 3/5/2 4/6/2
f 6/7/3 2/8/3 1/9/3
f 4/10/4 1/11/4 2/12/4
f 8/13/5 4/14/5 2/15/5
f 7/16/6 6/17/6 5/18/6
f 11/19/7 8/20/7 7/21/7
f 9/22/8 12/23/8 11/24/8
f 5/25/9 10/26/9 9/27/9
f 10/28/10 1/29/10 3/30/10
f 13/31/11 20/32/11 25/33/11
f 14/34/12 21/35/12 27/36/12
f 15/37/13 22/38/13 28/39/13
f 16/40/14 23/41/14 29/42/14
f 17/43/15 24/44/15 26/45/15
f 26/45/16 29/46/16 18/47/16
f 26/45/17 24/44/17 29/46/17
f 24/44/18 16/48/18 29/46/18
f 29/42/19 28/49/19 18/50/19
f 29/42/20 23/41/20 28/49/20
f 23/41/21 15/51/21 28/49/21
f 28/39/22 27/52/22 18/53/22
f 28/39/23 22/38/23 27/52/23
f 22/38/24 14/54/24 27/52/24
f 27/36/25 25/55/25 18/56/25
f 27/36/26 21/35/26 25/55/26
f 21/35/27 13/57/27 25/55/27
f 25/33/28 26/58/28 18/59/28
f 25/33/29 20/32/29 26/58/29
f 20/32/30 17/60/30 26/58/30
f 19/61/31 24/62/31 17/63/31
f 19/61/32 16/64/32 24/62/32
f 19/61/33 23/65/33 16/64/33
f 19/61/34 15/66/34 23/65/34
f 19/61/35 22/67/35 15/66/35
f 19/61/36 14/68/36 22/67/36
f 19/61/37 21/69/37 14/70/37
f 19/61/38 13/71/38 21/69/38
f 19/61/39 20/72/39 13/71/39
f 19/61/40 17/63/40 20/72/40
f 7/1/1 5/73/1 9/2/1
f 12/4/2 10/74/2 3/5/2
f 6/7/3 8/75/3 2/8/3
f 4/10/4 3/76/4 1/11/4
f 8/13/5 12/77/5 4/14/5
f 7/16/6 8/78/6 6/17/6
f 11/19/7 12/79/7 8/20/7
f 9/22/8 10/80/8 12/23/8
f 5/25/9 6/81/9 10/26/9
f 10/28/10 6/82/10 1/29/10
